<svg width="128" height="128" viewBox="0 0 128 128" fill="none" xmlns="http://www.w3.org/2000/svg">
<g clip-path="url(#clip0)">
<path d="M109.255 109.255C103.073 115.437 95.6891 120.287 87.56 123.506C79.4309 126.724 70.7285 128.243 61.9897 127.968C53.2509 127.694 44.6611 125.632 36.7501 121.909C28.8391 118.186 21.7748 112.882 15.9929 106.324L24.6342 98.7056C29.3753 104.083 35.1681 108.433 41.6551 111.485C48.1421 114.538 55.1858 116.229 62.3516 116.454C69.5174 116.679 76.6533 115.434 83.3192 112.795C89.9851 110.155 96.0395 106.178 101.109 101.109L109.255 109.255Z" fill="#FFFF22"/>
<path d="M121.024 34.9446C127.16 46.987 129.326 60.6627 127.212 74.0118C125.098 87.3609 118.812 99.698 109.255 109.255L101.109 101.109C108.946 93.2723 114.1 83.1559 115.834 72.2097C117.568 61.2634 115.791 50.0493 110.76 40.1746L121.024 34.9446Z" fill="#FF4433"/>
<path d="M6.97559 34.9446C12.3341 24.428 20.4964 15.5981 30.5601 9.43102C40.6238 3.26396 52.197 -4.36184e-06 64 0C75.8031 4.36185e-06 87.3762 3.26397 97.4399 9.43104C107.504 15.5981 115.666 24.4281 121.024 34.9446L110.76 40.1746C106.366 31.551 99.673 24.3105 91.4207 19.2535C83.1685 14.1965 73.6785 11.52 64 11.52C54.3215 11.52 44.8316 14.1964 36.5793 19.2534C28.327 24.3104 21.6339 31.551 17.24 40.1746L6.97559 34.9446Z" fill="#488A3B"/>
<path d="M21.002 76V51.8281H29.6846C32.7946 51.8281 35.1576 52.3981 36.7734 53.5381C38.4004 54.6781 39.2139 56.3327 39.2139 58.502C39.2139 59.7526 38.9261 60.8206 38.3506 61.7061C37.7751 62.5915 36.9284 63.2445 35.8105 63.665C37.0723 63.9971 38.0407 64.6169 38.7158 65.5244C39.391 66.432 39.7285 67.5387 39.7285 68.8447C39.7285 71.2132 38.9759 72.9951 37.4707 74.1904C35.9766 75.3747 33.7575 75.9779 30.8135 76H21.002ZM26.8291 65.7236V71.5176H30.6475C31.6989 71.5176 32.5068 71.2796 33.0713 70.8037C33.6357 70.3167 33.918 69.6361 33.918 68.7617C33.918 66.7474 32.9163 65.7347 30.9131 65.7236H26.8291ZM26.8291 61.9053H29.8672C31.14 61.8942 32.0475 61.6618 32.5898 61.208C33.1322 60.7542 33.4033 60.0846 33.4033 59.1992C33.4033 58.181 33.11 57.4505 32.5234 57.0078C31.9368 56.554 30.9906 56.3271 29.6846 56.3271H26.8291V61.9053ZM48.5938 76H42.9824V58.0371H48.5938V76ZM42.6504 53.4053C42.6504 52.6084 42.9382 51.9554 43.5137 51.4463C44.0892 50.9372 44.8363 50.6826 45.7549 50.6826C46.6735 50.6826 47.4206 50.9372 47.9961 51.4463C48.5716 51.9554 48.8594 52.6084 48.8594 53.4053C48.8594 54.2021 48.5716 54.8551 47.9961 55.3643C47.4206 55.8734 46.6735 56.1279 45.7549 56.1279C44.8363 56.1279 44.0892 55.8734 43.5137 55.3643C42.9382 54.8551 42.6504 54.2021 42.6504 53.4053ZM51.3994 66.8857C51.3994 65.0706 51.6982 63.4658 52.2959 62.0713C52.8936 60.6768 53.7512 59.6032 54.869 58.8506C55.9869 58.0869 57.2874 57.7051 58.7705 57.7051C60.641 57.7051 62.1019 58.3359 63.1533 59.5977L63.3525 58.0371H68.4326V75.3193C68.4326 76.902 68.0618 78.2744 67.3203 79.4365C66.5898 80.6097 65.5273 81.5062 64.1328 82.126C62.7383 82.7568 61.1223 83.0723 59.2851 83.0723C57.968 83.0723 56.6898 82.8232 55.4501 82.3252C54.2216 81.8271 53.2809 81.1797 52.6279 80.3828L54.9688 77.0957C56.009 78.3242 57.3815 78.9385 59.0859 78.9385C61.5651 78.9385 62.8046 77.6657 62.8046 75.1201V74.5557C61.731 75.7399 60.3753 76.332 58.7373 76.332C56.5459 76.332 54.7751 75.4964 53.4248 73.8252C52.0745 72.1429 51.3994 69.8962 51.3994 67.085V66.8857ZM57.0107 67.2344C57.0107 68.7064 57.2874 69.874 57.8408 70.7373C58.3941 71.5895 59.1689 72.0156 60.165 72.0156C61.3714 72.0156 62.2513 71.6117 62.8046 70.8037V63.25C62.2623 62.431 61.3936 62.0215 60.1982 62.0215C59.202 62.0215 58.4219 62.4697 57.8574 63.3662C57.293 64.2516 57.0107 65.541 57.0107 67.2344ZM82.5439 67.749H72.5664V63.416H82.5439V67.749ZM107.646 64.4121C107.646 66.7695 107.208 68.8558 106.334 70.6709C105.46 72.486 104.215 73.8861 102.599 74.8711C100.994 75.8451 99.1621 76.332 97.1035 76.332C95.0449 76.332 93.2188 75.8617 91.625 74.9209C90.0312 73.9691 88.7861 72.6133 87.8896 70.8535C87.0042 69.0938 86.5394 67.0739 86.4951 64.7939V63.4326C86.4951 61.0641 86.9268 58.9779 87.79 57.1738C88.6644 55.3587 89.9095 53.9587 91.5254 52.9736C93.1523 51.9886 95.0006 51.4961 97.0703 51.4961C99.1178 51.4961 100.944 51.9831 102.549 52.957C104.154 53.931 105.399 55.32 106.284 57.124C107.181 58.917 107.634 60.9756 107.646 63.2998V64.4121ZM101.719 63.3994C101.719 60.9977 101.315 59.1771 100.507 57.9375C99.71 56.6868 98.5645 56.0615 97.0703 56.0615C94.1484 56.0615 92.6045 58.2529 92.4385 62.6357L92.4219 64.4121C92.4219 66.7806 92.8148 68.6012 93.6006 69.874C94.3864 71.1468 95.554 71.7832 97.1035 71.7832C98.5755 71.7832 99.71 71.1579 100.507 69.9072C101.304 68.6566 101.708 66.8581 101.719 64.5117V63.3994Z" fill="#141414"/>
<path d="M16.4388 106.824C7.39518 96.7804 1.76341 84.1313 0.350663 70.6898C-1.06209 57.2484 1.81671 43.7047 8.57444 32L18.5511 37.76C13.0097 47.3579 10.6491 58.4637 11.8076 69.4857C12.966 80.5076 17.5841 90.8799 24.9999 99.116L16.4388 106.824Z" fill="#E85BA5"/>
</g>
<defs>
<clipPath id="clip0">
<rect width="128" height="128" fill="white"/>
</clipPath>
</defs>
</svg>
