<svg width="15" height="12" viewBox="0 0 15 12" fill="none" xmlns="http://www.w3.org/2000/svg">
<path d="M1.4397 3.6328C1.62945 3.76669 2.20142 4.16437 3.15565 4.82561C4.1099 5.48685 4.84092 5.99599 5.34874 6.35306C5.40453 6.3922 5.52307 6.47728 5.7044 6.60842C5.88576 6.73965 6.03646 6.8457 6.15637 6.92659C6.27637 7.00745 6.42144 7.09816 6.59172 7.19857C6.76194 7.2989 6.9224 7.37436 7.07307 7.42432C7.22376 7.47469 7.36326 7.49964 7.49159 7.49964H7.5H7.50844C7.63677 7.49964 7.77632 7.47466 7.92702 7.42432C8.07763 7.37436 8.23823 7.29881 8.40831 7.19857C8.57847 7.09804 8.72354 7.00742 8.84354 6.92659C8.96354 6.8457 9.11412 6.73965 9.29554 6.60842C9.47684 6.47717 9.59553 6.3922 9.65132 6.35306C10.1646 5.99599 11.4705 5.08915 13.5687 3.63262C13.976 3.34815 14.3164 3.00489 14.5897 2.60308C14.8633 2.20145 15 1.78012 15 1.33932C15 0.970962 14.8674 0.655644 14.6023 0.393392C14.3372 0.131082 14.0233 0 13.6607 0H1.33923C0.909571 0 0.578919 0.145067 0.347334 0.4352C0.115778 0.725392 0 1.08812 0 1.52335C0 1.8749 0.153511 2.25586 0.460385 2.666C0.76723 3.07616 1.09378 3.39846 1.4397 3.6328Z" fill="#222222"/>
<path d="M14.1628 4.52826C12.3327 5.76698 10.943 6.72968 9.99444 7.41614C9.67636 7.65042 9.41833 7.83331 9.22017 7.96436C9.02201 8.0955 8.75847 8.22943 8.42917 8.36608C8.09998 8.50294 7.7932 8.57116 7.50855 8.57116H7.50001H7.4916C7.20701 8.57116 6.90005 8.50294 6.57086 8.36608C6.24168 8.22943 5.97796 8.0955 5.77985 7.96436C5.58181 7.83331 5.32369 7.65042 5.00565 7.41614C4.25226 6.86372 2.86556 5.90097 0.845509 4.52826C0.527347 4.31634 0.24554 4.07344 0 3.80005V10.4461C0 10.8146 0.131082 11.1297 0.393392 11.392C0.655644 11.6544 0.970991 11.7855 1.33932 11.7855H13.6608C14.029 11.7855 14.3443 11.6544 14.6066 11.392C14.869 11.1297 15 10.8146 15 10.4461V3.80005C14.76 4.06778 14.4811 4.31069 14.1628 4.52826Z" fill="#222222"/>
</svg>
