<svg width="38" height="19" viewBox="0 0 38 19" fill="none" xmlns="http://www.w3.org/2000/svg">
<rect x="0.945312" y="0.5" width="36" height="18" rx="4.5" fill="white" stroke="#1A1A1A"/>
<path d="M12.2266 10.3994H7.91309V13.9268H12.9238V15H6.60059V5.04688H12.8555V6.12695H7.91309V9.32617H12.2266V10.3994ZM22.207 15H20.8877L15.877 7.33008V15H14.5576V5.04688H15.877L20.9014 12.751V5.04688H22.207V15ZM31.8867 13.6943C31.5495 14.1774 31.0778 14.5397 30.4717 14.7812C29.8701 15.0182 29.1683 15.1367 28.3662 15.1367C27.555 15.1367 26.835 14.9476 26.2061 14.5693C25.5771 14.1865 25.0895 13.6442 24.7432 12.9424C24.4014 12.2406 24.2259 11.4271 24.2168 10.502V9.63379C24.2168 8.13444 24.5654 6.97233 25.2627 6.14746C25.9645 5.32259 26.9489 4.91016 28.2158 4.91016C29.2549 4.91016 30.0911 5.17676 30.7246 5.70996C31.3581 6.23861 31.7454 6.99056 31.8867 7.96582H30.5742C30.3281 6.64876 29.5443 5.99023 28.2227 5.99023C27.3431 5.99023 26.6755 6.30013 26.2197 6.91992C25.7686 7.53516 25.5407 8.42839 25.5361 9.59961V10.4131C25.5361 11.5296 25.7913 12.4183 26.3018 13.0791C26.8122 13.7354 27.5026 14.0635 28.373 14.0635C28.8652 14.0635 29.2959 14.0088 29.665 13.8994C30.0342 13.79 30.3395 13.6055 30.5811 13.3457V11.1104H28.2773V10.0439H31.8867V13.6943Z" fill="black"/>
</svg>
