<svg width="16" height="16" viewBox="0 0 16 16" fill="none" xmlns="http://www.w3.org/2000/svg">
<path d="M15.4662 12.0097C15.4223 11.8776 15.1434 11.683 14.6296 11.4264C14.4904 11.3455 14.2921 11.2356 14.0354 11.0961C13.7785 10.9566 13.5454 10.8281 13.3364 10.7107C13.1269 10.5933 12.9307 10.4795 12.7474 10.3696C12.7181 10.3476 12.6263 10.2835 12.4722 10.1768C12.3179 10.0705 12.1879 9.99154 12.0812 9.94006C11.9749 9.8889 11.8702 9.86314 11.7675 9.86314C11.6207 9.86314 11.4374 9.96778 11.2173 10.1768C10.9972 10.3861 10.7953 10.6134 10.612 10.8595C10.4285 11.1055 10.234 11.3328 10.0287 11.542C9.82316 11.7512 9.65424 11.8558 9.52229 11.8558C9.45605 11.8558 9.37346 11.8373 9.27448 11.8008C9.17554 11.7642 9.10028 11.7328 9.04861 11.7074C8.99741 11.6816 8.90954 11.6303 8.78469 11.553C8.65961 11.476 8.59005 11.4337 8.57539 11.4264C7.57001 10.8685 6.70774 10.23 5.98845 9.51099C5.26939 8.79158 4.6308 7.9294 4.07307 6.9239C4.06574 6.90921 4.02344 6.83946 3.94644 6.71476C3.86933 6.58995 3.81793 6.502 3.79225 6.45049C3.76657 6.39917 3.73538 6.3239 3.69875 6.22485C3.66212 6.12579 3.64373 6.04328 3.64373 5.97715C3.64373 5.84513 3.74833 5.67625 3.95751 5.47074C4.16665 5.26534 4.39421 5.07078 4.63998 4.88744C4.88594 4.7041 5.11327 4.50221 5.32249 4.28212C5.53162 4.06192 5.63619 3.87854 5.63619 3.73179C5.63619 3.62911 5.61051 3.52443 5.55919 3.41805C5.50783 3.31144 5.42894 3.18135 5.32249 3.02715C5.21599 2.87304 5.15179 2.78139 5.12974 2.75189C5.01977 2.56855 4.90614 2.37225 4.78858 2.16308C4.67102 1.95394 4.5427 1.72082 4.4032 1.46399C4.26381 1.20728 4.15381 1.00905 4.07299 0.869627C3.81627 0.356002 3.62183 0.0769994 3.48969 0.0331209C3.43829 0.0111046 3.36118 0 3.25854 0C3.06028 0 2.80163 0.0366297 2.48241 0.11012C2.16308 0.183495 1.9118 0.260456 1.7283 0.341311C1.36135 0.495349 0.972422 0.943002 0.561398 1.68412C0.18712 2.37383 0 3.0565 0 3.7316C0 3.92959 0.0128397 4.12223 0.038519 4.30954C0.0641983 4.49666 0.110082 4.70768 0.176208 4.94258C0.242219 5.17739 0.295467 5.35183 0.335721 5.46542C0.376013 5.57909 0.451239 5.78271 0.56136 6.07636C0.671326 6.36994 0.737452 6.54966 0.759468 6.61571C1.0163 7.33496 1.32087 7.97706 1.67309 8.5422C2.25261 9.48153 3.04346 10.4523 4.04519 11.4541C5.04695 12.4558 6.01752 13.2466 6.95694 13.8264C7.522 14.1786 8.16433 14.4831 8.88347 14.7401C8.94956 14.762 9.12927 14.828 9.42274 14.9384C9.71631 15.0484 9.92001 15.1236 10.0337 15.164C10.1474 15.2044 10.3219 15.2577 10.5565 15.3238C10.7916 15.3899 11.0024 15.4358 11.1896 15.4617C11.3768 15.487 11.5695 15.5001 11.7675 15.5001C12.4426 15.5001 13.1253 15.3129 13.8151 14.9386C14.5561 14.5278 15.0037 14.1387 15.1578 13.7715C15.2388 13.5882 15.3156 13.3369 15.389 13.0175C15.4626 12.6984 15.4991 12.4397 15.4991 12.2415C15.4994 12.1385 15.4883 12.0615 15.4662 12.0097Z" fill="#222222"/>
</svg>
