<svg width="13" height="15" viewBox="0 0 13 15" fill="none" xmlns="http://www.w3.org/2000/svg">
<path d="M11.0468 2.60804C9.9017 0.950713 8.08685 0 6.06797 0C4.0491 0 2.23424 0.950713 1.08912 2.60804C-0.050386 4.25698 -0.313501 6.34459 0.383882 8.18897C0.570415 8.69265 0.866929 9.18199 1.26308 9.64055L5.66869 14.8154C5.76832 14.9325 5.91431 15 6.06797 15C6.22164 15 6.36762 14.9325 6.46726 14.8154L10.8716 9.64195C11.2695 9.18076 11.5657 8.69194 11.7507 8.19232C12.4494 6.34459 12.1863 4.25698 11.0468 2.60804ZM10.7685 7.82499C10.6259 8.21048 10.393 8.5916 10.0767 8.95819C10.0758 8.95907 10.075 8.95995 10.0743 8.96101L6.06797 13.6666L2.05922 8.95805C1.74314 8.59178 1.51026 8.21068 1.36621 7.8215C0.789468 6.29616 1.00834 4.57011 1.95188 3.20455C2.89837 1.83463 4.39873 1.04895 6.06797 1.04895C7.73719 1.04895 9.23737 1.8346 10.1839 3.20455C11.1276 4.57011 11.3467 6.29616 10.7685 7.82499Z" fill="#222222"/>
<path d="M6.06988 3.11182C4.45047 3.11182 3.13281 4.4293 3.13281 6.04889C3.13281 7.66848 4.45029 8.98596 6.06988 8.98596C7.68947 8.98596 9.00695 7.66848 9.00695 6.04889C9.00695 4.42947 7.6893 3.11182 6.06988 3.11182ZM6.06988 7.93698C5.02879 7.93698 4.18176 7.08995 4.18176 6.04886C4.18176 5.00776 5.02879 4.16073 6.06988 4.16073C7.11098 4.16073 7.95801 5.00776 7.95801 6.04886C7.95801 7.08995 7.11098 7.93698 6.06988 7.93698Z" fill="#222222"/>
</svg>
