<svg width="30" height="18" viewBox="0 0 30 18" fill="green" xmlns="http://www.w3.org/2000/svg">
<path d="M21.8605 0.954149C21.622 1.2092 21.622 1.62315 21.8605 1.87809L27.9158 8.3592H0.610499C0.273402 8.3592 0 8.65182 0 9.01263C0 9.37343 0.273402 9.66606 0.610499 9.66606H27.9157L21.8603 16.1473C21.622 16.4023 21.6219 16.8162 21.8604 17.0713C22.0988 17.3265 22.4854 17.3265 22.7238 17.0712L29.8212 9.4746C29.9404 9.34707 30 9.17979 30 9.01263C30 8.84546 29.9404 8.67818 29.8211 8.55066L22.7237 0.954149C22.4854 0.698877 22.0988 0.698877 21.8605 0.954149Z" fill="#bfbfbf"/>
</svg>
