<svg width="20" height="21" viewBox="0 0 20 21" fill="none" xmlns="http://www.w3.org/2000/svg">
<path d="M16.7875 2.10773H3.19302C1.77166 2.10773 0.615234 3.26392 0.615234 4.68551V13.005C0.615234 14.4234 1.76662 15.5778 3.18386 15.5828V19.3581L8.60939 15.5828H16.7875C18.2088 15.5828 19.3652 14.4264 19.3652 13.005V4.68551C19.3652 3.26392 18.2088 2.10773 16.7875 2.10773ZM18.2666 13.005C18.2666 13.8205 17.6031 14.4842 16.7875 14.4842H8.26469L4.28249 17.2552V14.4842H3.19302C2.3774 14.4842 1.71387 13.8205 1.71387 13.005V4.68551C1.71387 3.86977 2.3774 3.20636 3.19302 3.20636H16.7875C17.6031 3.20636 18.2666 3.86977 18.2666 4.68551V13.005Z" fill="#737373"/>
<path d="M5.63379 5.98975H14.3471V7.08838H5.63379V5.98975Z" fill="#737373"/>
<path d="M5.63379 8.3335H14.3471V9.43213H5.63379V8.3335Z" fill="#737373"/>
<path d="M5.63379 10.6772H14.3471V11.7759H5.63379V10.6772Z" fill="#737373"/>
</svg>
