<svg width="25" height="21" viewBox="0 0 25 21" fill="none" xmlns="http://www.w3.org/2000/svg">
<path d="M12.5 0.5C5.65432 0.5 0.416049 9.38945 0.196296 9.76789C-0.0654321 10.2187 -0.0654321 10.7813 0.196296 11.2321C0.416049 11.6105 5.65432 20.5 12.5 20.5C19.3457 20.5 24.5839 11.6105 24.8037 11.2321C25.0654 10.7813 25.0654 10.2187 24.8037 9.76789C24.5839 9.38945 19.3457 0.5 12.5 0.5ZM12.4679 18.9812C7.43086 18.9812 2.91111 12.8182 1.38889 10.4994C3.83086 6.77341 8.12222 2.0201 12.4679 2.0201C17.5037 2.0201 22.0235 8.18176 23.5469 10.5019C21.1049 14.2279 16.8136 18.9812 12.4679 18.9812Z" fill="#737373"/>
<path d="M12.5 6.21464C10.2025 6.21464 8.33333 8.13731 8.33333 10.5006C8.33333 12.864 10.2025 14.7866 12.5 14.7866C14.7975 14.7866 16.6667 12.864 16.6667 10.5006C16.6667 8.13731 14.7975 6.21464 12.5 6.21464ZM12.5 13.25C11.0259 13.25 9.82716 12.0169 9.82716 10.5006C9.82716 8.98435 11.0259 7.75125 12.5 7.75125C13.9741 7.75125 15.1728 8.98435 15.1728 10.5006C15.1728 12.0169 13.9741 13.25 12.5 13.25Z" fill="#737373"/>
</svg>
