<svg width="20" height="20" viewBox="0 0 20 20" fill="none" xmlns="http://www.w3.org/2000/svg">
<circle cx="10" cy="10" r="10" fill="#F05A22"/>
<path d="M7.71429 8.08301L7.28249 7.83091L7.21429 7.94774V8.08301H7.71429ZM9.25577 5.44273L9.68757 5.69483V5.69483L9.25577 5.44273ZM10.7797 6.38322L10.3253 6.17474V6.17474L10.7797 6.38322ZM10 8.08301L9.54554 7.87453C9.47453 8.02933 9.48719 8.20963 9.57915 8.35298C9.6711 8.49632 9.82969 8.58301 10 8.58301V8.08301ZM14 11.1972L14.4119 11.4806L14.5 11.3526V11.1972H14ZM12.6286 13.1903L13.0405 13.4737H13.0405L12.6286 13.1903ZM10.4466 5.13632L10.7203 4.71786V4.71786L10.4466 5.13632ZM5.5 7.77159V14H6.5V7.77159H5.5ZM8.14608 8.33511L9.68757 5.69483L8.82398 5.19063L7.28249 7.83091L8.14608 8.33511ZM10.3253 6.17474L9.54554 7.87453L10.4545 8.29149L11.2342 6.59169L10.3253 6.17474ZM10 8.58301H12.8571V7.58301H10V8.58301ZM13.5 9.32869V11.1972H14.5V9.32869H13.5ZM13.5881 10.9138L12.2167 12.9069L13.0405 13.4737L14.4119 11.4806L13.5881 10.9138ZM11.7143 13.1886H8.85714V14.1886H11.7143V13.1886ZM8.21429 12.4429V8.08301H7.21429V12.4429H8.21429ZM12.8571 8.58301C13.1725 8.58301 13.5 8.87544 13.5 9.32869H14.5C14.5 8.406 13.8041 7.58301 12.8571 7.58301V8.58301ZM8.85714 13.1886C8.54178 13.1886 8.21429 12.8961 8.21429 12.4429H7.21429C7.21429 13.3656 7.91014 14.1886 8.85714 14.1886V13.1886ZM10.173 5.55477C10.3444 5.66688 10.4343 5.93707 10.3253 6.17474L11.2342 6.59169C11.535 5.93604 11.3346 5.11961 10.7203 4.71786L10.173 5.55477ZM12.2167 12.9069C12.0877 13.0944 11.8983 13.1886 11.7143 13.1886V14.1886C12.2497 14.1886 12.7378 13.9136 13.0405 13.4737L12.2167 12.9069ZM9.68757 5.69483C9.80845 5.48777 10.0211 5.45547 10.173 5.55477L10.7203 4.71786C10.0571 4.28412 9.21341 4.52361 8.82398 5.19063L9.68757 5.69483Z" fill="white"/>
</svg>
