<svg width="21" height="21" viewBox="0 0 21 21" fill="none" xmlns="http://www.w3.org/2000/svg">
<path fill-rule="evenodd" clip-rule="evenodd" d="M12.4688 4.88843H11.693V8.28361C11.693 8.58659 11.7189 8.79193 11.7619 8.92204C11.8399 9.13929 12.0128 9.24091 12.2632 9.24091C12.547 9.24091 12.8423 9.06875 13.1521 8.71367V9.18181H13.93V4.88843H13.1521V8.17008C12.9794 8.41372 12.8161 8.53426 12.6606 8.53426C12.5564 8.53426 12.4952 8.47259 12.4781 8.35205C12.4688 8.32659 12.4688 8.23198 12.4688 8.04954V4.88843ZM8.99814 5.27691C8.83275 5.49393 8.75473 5.82938 8.75473 6.28841V7.79187C8.75473 8.2481 8.83275 8.58682 8.99814 8.8015C9.21329 9.09444 9.51627 9.24091 9.90405 9.24091C10.2937 9.24091 10.5964 9.09444 10.8116 8.8015C10.9747 8.58682 11.0527 8.24833 11.0527 7.79187V6.28841C11.0527 5.82938 10.9747 5.49369 10.8116 5.27691C10.5964 4.98327 10.2937 4.83657 9.90405 4.83657C9.51627 4.83657 9.21329 4.98327 8.99814 5.27691ZM7.28677 5.68291L6.67426 3.42047H5.76672C5.85654 3.68452 5.94825 3.94907 6.03998 4.21369L6.04 4.21375L6.04002 4.21382C6.13388 4.48457 6.22775 4.75539 6.31966 5.02579C6.59647 5.82938 6.76911 6.43511 6.84736 6.84859V9.18204H7.70982V6.84859L8.74772 3.42047H7.87521L7.28677 5.68291ZM15.1926 18.3344C15.8595 18.2598 16.4134 17.7599 16.5694 17.0827C16.7916 16.1182 16.7925 15.0649 16.7925 14.0716V14.0529C16.7925 13.0651 16.7925 12.0192 16.5725 11.0604C16.4162 10.383 15.8621 9.88332 15.1951 9.8088C13.6155 9.63243 12.0168 9.63149 10.4252 9.63243C8.83322 9.63149 7.23444 9.63243 5.65482 9.8088C4.98789 9.88308 4.43425 10.383 4.27844 11.0604C4.05651 12.0252 4.05371 13.0783 4.05371 14.0716C4.05371 15.0649 4.05371 16.1182 4.27587 17.0827C4.43145 17.7602 4.98555 18.2598 5.65249 18.3344C7.23187 18.5107 8.83088 18.5117 10.4224 18.5107C12.0146 18.5117 13.6127 18.5107 15.1926 18.3344ZM13.7748 12.8427C13.9972 12.5519 14.3029 12.4073 14.6968 12.4073C15.0832 12.4073 15.3894 12.5521 15.6046 12.8423C15.766 13.0572 15.8428 13.3894 15.8428 13.8433V14.7232H14.3029V15.4768C14.3029 15.8698 14.4324 16.066 14.6968 16.066C14.8862 16.066 14.997 15.9632 15.0409 15.7574C15.0477 15.7156 15.0577 15.5444 15.0577 15.236H15.8428V15.3479C15.8428 15.5962 15.8337 15.767 15.8265 15.8441C15.8008 16.0146 15.7401 16.169 15.6466 16.3054C15.4336 16.614 15.118 16.7661 14.716 16.7661C14.3132 16.7661 14.0065 16.621 13.7843 16.3309C13.6204 16.1181 13.537 15.7836 13.537 15.332V13.8437C13.537 13.3898 13.6115 13.0577 13.7748 12.8427ZM14.3034 14.0827H15.0734V13.6895C15.0734 13.2969 14.9444 13.1002 14.6898 13.1002C14.4326 13.1002 14.3034 13.2966 14.3034 13.6895V14.0827ZM9.24336 15.7058C9.0726 15.9471 8.91118 16.0661 8.75653 16.0661C8.65375 16.0661 8.59511 16.0055 8.57642 15.8859C8.56942 15.8612 8.56942 15.7673 8.56942 15.5869V12.459H7.79946V15.818C7.79946 16.1181 7.82539 16.3209 7.86744 16.4499C7.94476 16.6652 8.11576 16.7662 8.36338 16.7662C8.64674 16.7662 8.93734 16.5952 9.24336 16.2443V16.7078H10.0138V12.459H9.24336V15.7058ZM11.4493 12.868C11.6976 12.562 11.9618 12.4074 12.245 12.4074C12.551 12.4074 12.7575 12.5686 12.86 12.8872C12.9117 13.058 12.9381 13.3388 12.9381 13.741V15.4328C12.9381 15.8259 12.9117 16.1088 12.86 16.2889C12.7572 16.6052 12.5512 16.7664 12.245 16.7664C11.9709 16.7664 11.707 16.6141 11.4493 16.2962V16.7078H10.6796V11.0058H11.4493V12.868ZM11.8329 16.0663C12.0553 16.0663 12.1679 15.8771 12.1679 15.493V13.6798C12.1679 13.2967 12.055 13.1 11.8329 13.1C11.7065 13.1 11.5778 13.1603 11.4491 13.2876V15.8768C11.5778 16.0058 11.7065 16.0663 11.8329 16.0663ZM5.00371 11.8082H5.90892V16.7075H6.7653V11.8082H7.68733V11.0058H5.00371V11.8082ZM10.2753 7.93822C10.2753 8.33534 10.155 8.53414 9.9043 8.53414C9.65342 8.53414 9.53288 8.33558 9.53288 7.93822V6.13224C9.53288 5.73511 9.65342 5.53702 9.9043 5.53702C10.155 5.53702 10.2753 5.73488 10.2753 6.13224V7.93822Z" fill="#222222"/>
<path d="M18.6429 1.38477H2.35714C1.60761 1.38477 1 1.99238 1 2.74191V19.0276C1 19.7772 1.60761 20.3848 2.35714 20.3848H18.6429C19.3924 20.3848 20 19.7772 20 19.0276V2.74191C20 1.99238 19.3924 1.38477 18.6429 1.38477Z" stroke="#403845"/>
</svg>
