<svg width="168" height="108" viewBox="0 0 168 108" fill="none" xmlns="http://www.w3.org/2000/svg">
<path d="M37.9311 107.892C59.3807 107.892 76.3171 90.5006 76.3171 69.051C76.3171 47.6014 58.7006 30.2105 37.251 30.2105C37.0365 30.2105 36.7128 30.2396 36.4982 30.2432C44.9791 23.4897 55.6312 19.4202 67.2906 19.4202C72.6549 19.4202 76.9717 15.0706 76.9717 9.71006C76.9717 4.34948 73.5204 -6.89663e-05 68.1562 -6.94352e-05C30.083 0.00355883 -0.000290822 30.9778 -0.000294151 69.051C-0.000294151 69.0583 -0.000294152 69.0656 -0.000294153 69.0765C-0.000296027 90.5152 16.4888 107.892 37.9311 107.892Z" fill="#FFF1E1"/>
<path d="M128.904 107.892C150.353 107.892 167.319 90.5006 167.319 69.051C167.319 47.6014 149.717 30.2105 128.264 30.2105C128.049 30.2105 127.733 30.2396 127.518 30.2432C135.999 23.4898 146.655 19.4202 158.314 19.4202C163.679 19.4202 167.999 15.0707 167.999 9.71008C167.999 4.34949 164.493 -6.13416e-05 159.129 -6.18106e-05C121.056 0.00357408 90.9179 30.9778 90.9179 69.051C90.9179 69.0583 90.9179 69.0656 90.9179 69.0765C90.9179 90.5152 107.462 107.892 128.904 107.892Z" fill="#FFF1E1"/>
</svg>
