<svg width="45" height="44" viewBox="0 0 45 44" fill="none" xmlns="http://www.w3.org/2000/svg">
<rect width="45" height="44" fill="#E5E5E5"/>
<g clip-path="url(#clip0)">
<rect width="1920" height="2637" transform="translate(-411 -718)" fill="white"/>
<g clip-path="url(#clip1)">
<path d="M30.6644 7.56749L23.3133 0.216314C23.1801 0.0827895 22.9962 0 22.7925 0H7.35136C5.72996 0 4.41016 1.31905 4.41016 2.9412V32.353C4.41016 33.9751 5.72996 35.2941 7.35136 35.2941H27.9396C29.5609 35.2941 30.8807 33.9751 30.8807 32.3529V8.08821C30.8807 7.88458 30.798 7.7006 30.6644 7.56749ZM9.55724 7.35296H18.3808C18.7872 7.35296 19.1161 7.68185 19.1161 8.08828C19.1161 8.49471 18.7872 8.8236 18.3808 8.8236H9.55724C9.1508 8.8236 8.82192 8.49471 8.82192 8.08828C8.82192 7.68185 9.1508 7.35296 9.55724 7.35296ZM20.3669 27.7301C17.1658 30.8823 16.4204 30.8823 16.1749 30.8823C15.2615 30.8823 14.9341 29.834 14.5951 28.7109C14.0824 29.7514 13.4922 30.8823 12.4984 30.8823C11.9871 30.8823 11.3753 30.5456 10.7994 30.0329C10.5251 30.3057 10.2522 30.5448 9.99807 30.7352C9.86592 30.8343 9.71082 30.8823 9.55717 30.8823C9.33458 30.8823 9.11337 30.7811 8.96834 30.5879C8.72562 30.2634 8.79166 29.8024 9.11627 29.559C9.34892 29.3837 9.58591 29.1727 9.81857 28.94C9.23408 28.1336 8.82192 27.2145 8.82192 26.4706C8.82192 24.7925 10.1604 23.5294 11.0278 23.5294C11.8809 23.5294 13.2337 24.1283 13.2337 25.7353C13.2337 26.6716 12.5831 27.883 11.7731 28.9292C12.0733 29.2093 12.3462 29.3952 12.5055 29.4117C12.6678 29.2976 13.1144 28.3885 13.3298 27.9519C13.7693 27.06 14.0594 26.4705 14.7043 26.4705C15.4582 26.4705 15.6923 27.2525 15.991 28.2427C16.0787 28.5363 16.2237 29.0203 16.3515 29.3097C16.8915 28.9449 18.2543 27.7457 19.3358 26.6816C19.6258 26.3979 20.0912 26.3994 20.3755 26.6902C20.6599 26.9797 20.657 27.445 20.3669 27.7301ZM25.7337 22.0588H15.4396C15.0331 22.0588 14.7043 21.7299 14.7043 21.3235C14.7043 20.9171 15.0331 20.5882 15.4396 20.5882H25.7337C26.1401 20.5882 26.469 20.9171 26.469 21.3235C26.469 21.7299 26.1401 22.0588 25.7337 22.0588ZM25.7337 17.6471H9.55724C9.1508 17.6471 8.82192 17.3182 8.82192 16.9117C8.82192 16.5053 9.1508 16.1764 9.55724 16.1764H25.7337C26.1402 16.1764 26.469 16.5053 26.469 16.9117C26.469 17.3182 26.1401 17.6471 25.7337 17.6471ZM25.7337 13.2353H9.55724C9.1508 13.2353 8.82192 12.9064 8.82192 12.5C8.82192 12.0935 9.1508 11.7647 9.55724 11.7647H25.7337C26.1402 11.7647 26.469 12.0935 26.469 12.5C26.469 12.9064 26.1401 13.2353 25.7337 13.2353ZM24.9984 7.35296C24.187 7.35296 23.5278 6.69306 23.5278 5.8824V2.51036L28.3705 7.35296H24.9984Z" fill="#F05A22"/>
<path d="M11.0283 25.0001C10.9507 25.0489 10.293 25.5738 10.293 26.4706C10.293 26.8469 10.5055 27.3194 10.8043 27.7746C11.3672 26.9956 11.7636 26.2043 11.7636 25.7354C11.7636 25.0352 11.1504 25.0001 11.0283 25.0001Z" fill="#F05A22"/>
</g>
<path d="M22.0297 32.4432L22.0297 32.4432L22.0231 32.4498C21.5896 32.8836 21.2796 33.4518 21.1679 34.0889C21.1676 34.0906 21.1673 34.0923 21.167 34.094L20.4036 38.3859C20.4035 38.3864 20.4034 38.3868 20.4033 38.3873C20.2251 39.3845 20.551 40.3962 21.2618 41.1027C21.848 41.6868 22.6358 42 23.4378 42C23.617 42 23.7981 41.984 23.977 41.9517L28.2989 41.1958C28.3011 41.1955 28.3032 41.1951 28.3054 41.1947C28.9283 41.0877 29.5043 40.7909 29.9525 40.3441C29.9539 40.3427 29.9554 40.3413 29.9568 40.3399L40.6711 29.7154C42.4457 27.9557 42.4473 25.0901 40.6701 23.3305L38.885 21.5604C38.2327 20.9135 37.2637 20.3794 36.0897 20.3539C34.8738 20.3275 33.7191 20.8516 32.7498 21.8145C32.7495 21.8148 32.7492 21.8151 32.7489 21.8154L22.0297 32.4432Z" fill="#F05A22" stroke="white" stroke-width="4"/>
</g>
<defs>
<clipPath id="clip0">
<rect width="1920" height="2637" fill="white" transform="translate(-411 -718)"/>
</clipPath>
<clipPath id="clip1">
<rect width="35.2941" height="35.2941" fill="white"/>
</clipPath>
</defs>
</svg>
