<svg width="215" height="155" viewBox="0 0 215 155" fill="none" xmlns="http://www.w3.org/2000/svg">
<path d="M9.21484 9.33001L9.20924 9.33565L9.20374 9.34138C4.28642 14.4544 1 21.4908 1 29.4232C1 37.2033 4.2885 44.2433 9.20399 49.3504L9.20944 49.3559C14.2263 54.4876 21.2936 57.6914 29.099 57.6914C42.4941 57.6914 53.0172 49.0201 56.2936 36.3161L56.6159 35.0664H55.3253H47.4794H46.7686L46.535 35.7377C43.8323 43.5043 37.0962 47.967 29.099 47.967C24.0753 47.967 19.4965 45.8502 16.1847 42.4743C12.8653 39.0906 10.7673 34.5457 10.7673 29.4232C10.7673 24.1379 12.8681 19.5981 16.1843 16.2175C19.4966 12.8449 24.0796 10.7245 29.099 10.7245C36.8862 10.7245 43.2899 14.5988 46.0634 22.2694L46.302 22.9294H47.0038H54.9283H56.221L55.8962 21.6781C52.6132 9.03088 42.2299 1 29.099 1C21.2873 1 14.2207 4.28783 9.21484 9.33001Z" fill="#F05A22" stroke="white" stroke-width="2"/>
<path d="M67.0242 9.4204L67.0241 9.42038L67.0185 9.42627C62.0834 14.5779 58.8633 21.6345 58.8633 29.4988C58.8633 37.3631 62.0834 44.4197 67.0185 49.5713L67.0189 49.5717C72.0497 54.8165 79.1244 57.9975 86.8247 57.9975C94.6065 57.9975 101.599 54.8146 106.703 49.5775L106.703 49.5775L106.709 49.5713C111.645 44.4197 114.865 37.3631 114.865 29.4988C114.865 21.6345 111.645 14.5779 106.709 9.42627L106.704 9.42042L106.698 9.41466C101.6 4.26281 94.6086 1 86.8247 1C79.1182 1 72.0481 4.26096 67.0242 9.4204ZM73.982 16.3396L73.982 16.3396L73.9901 16.3312C77.2956 12.9126 81.8913 10.8119 86.8286 10.8119C91.7666 10.8119 96.4389 12.9133 99.8203 16.3352C103.057 19.6819 105.137 24.2616 105.141 29.4995C105.14 34.736 103.057 39.3152 99.8205 42.6621C96.4388 46.0803 91.7704 48.1816 86.8286 48.1816C81.887 48.1816 77.2953 46.0846 73.9901 42.6663L73.9902 42.6663L73.9823 42.6584C70.677 39.3154 68.5912 34.6632 68.5912 29.4988C68.5912 24.3339 70.6734 19.682 73.982 16.3396Z" fill="#F05A22" stroke="white" stroke-width="2"/>
<path d="M213.004 48.5734V47.5734H212.004H184.458V34.4068H212.008H213.008V33.4068V25.5949V24.5949H212.008H184.458V11.5037H211.929H212.929V10.5037V2.76733V1.76733H211.929H175.73H174.73V2.76733V56.3098V57.3098H175.73H212.004H213.004V56.3098V48.5734Z" fill="#F05A22" stroke="white" stroke-width="2"/>
<path d="M133.367 47.5734H126.376V11.5037H133.367H134.367V10.5037V2.76733V1.76733H133.367H117.723H116.723V2.76733V56.3098V57.3098H117.723H133.367H134.367V56.3098V48.5734V47.5734H133.367Z" fill="#FFC828" stroke="white" stroke-width="2"/>
<path d="M138.461 1.76733H137.461V2.76733V10.5037V11.5037H138.461H145.674C151.523 11.5037 155.864 13.7757 158.756 17.1322C161.666 20.5091 163.153 25.0369 163.153 29.5783C163.153 34.1194 161.666 38.6273 158.758 41.9847C155.867 45.3222 151.526 47.5774 145.674 47.5774H138.461H137.461V48.5774V56.3138V57.3138H138.461H145.674C154.625 57.3138 161.418 53.8629 165.959 48.6285C170.484 43.4141 172.727 36.4876 172.727 29.5783C172.727 22.6694 170.484 15.7247 165.961 10.4918C161.42 5.2386 154.627 1.76733 145.674 1.76733H138.461Z" fill="#FFC828" stroke="white" stroke-width="2"/>
<path d="M18 96.688H17V97.688V105.504V106.504H18H31.2728V151.541V152.541H32.2728H39.9221H40.9221V151.541V106.504H54.1005H55.1005V105.504V97.688V96.688H54.1005H18Z" fill="#F05A22" stroke="white" stroke-width="2"/>
<path d="M64.2663 104.42L64.2663 104.42L64.2607 104.426C59.3256 109.578 56.1055 116.634 56.1055 124.499C56.1055 132.363 59.3256 139.42 64.2607 144.571L64.2611 144.572C69.2919 149.817 76.3666 152.998 84.0669 152.998C91.8487 152.998 98.8408 149.815 103.946 144.578L103.946 144.578L103.952 144.571C108.887 139.42 112.107 132.363 112.107 124.499C112.107 116.634 108.887 109.578 103.952 104.426L103.946 104.42L103.94 104.415C98.8424 99.2628 91.8508 96 84.0669 96C76.3604 96 69.2903 99.261 64.2663 104.42ZM71.2241 111.34L71.2242 111.34L71.2323 111.331C74.5378 107.913 79.1335 105.812 84.0708 105.812C89.0088 105.812 93.681 107.913 97.0625 111.335C100.299 114.682 102.383 119.262 102.383 124.499C102.383 129.736 100.299 134.315 97.0627 137.662C93.6811 141.08 89.0088 143.182 84.0708 143.182C79.1292 143.182 74.5375 141.085 71.2323 137.666L71.2324 137.666L71.2245 137.658C67.9192 134.315 65.8334 129.663 65.8334 124.499C65.8334 119.334 67.9156 114.682 71.2241 111.34Z" fill="#F05A22" stroke="white" stroke-width="2"/>
<path d="M153.396 97V96H152.396H144.672H143.672V97V118.961V133.865C143.672 139.013 139.533 143.186 134.467 143.186C129.401 143.186 125.263 139.017 125.263 133.865V118.961V97V96H124.263H116.539H115.539V97V133.869C115.539 144.425 124.003 153.002 134.467 153.002C144.932 153.002 153.396 144.421 153.396 133.865V97Z" fill="#F05A22" stroke="white" stroke-width="2"/>
<path d="M158 96H157V97V151.636V152.636H158H165.873H166.873V151.636V134.452H175.41L185.604 152.139L185.893 152.64H186.471H194.12H195.851L194.987 151.14L184.481 132.911C191.649 129.804 195.187 122.492 195.187 115.264C195.187 110.495 193.657 105.688 190.558 102.058C187.441 98.4067 182.782 96 176.667 96H158ZM166.869 105.959H176.667C179.659 105.959 181.827 107.122 183.264 108.832C184.719 110.565 185.471 112.92 185.471 115.339C185.471 117.717 184.721 120.054 183.265 121.779C181.828 123.481 179.659 124.644 176.667 124.644H166.869V105.959Z" fill="#F05A22" stroke="white" stroke-width="2"/>
</svg>
