<svg width="156" height="21" viewBox="0 0 156 21" fill="none" xmlns="http://www.w3.org/2000/svg">
<path d="M3.52585 3.06714C5.37049 1.20911 7.97308 -0.000732422 10.8473 -0.000732422C15.6878 -0.000732422 19.5001 2.94874 20.7099 7.609H17.684C16.5643 4.51228 13.9633 2.94874 10.8473 2.94874C8.8211 2.94874 6.97497 3.80489 5.64365 5.16046C4.31234 6.51756 3.46582 8.34523 3.46582 10.4704C3.46582 12.5349 4.31234 14.3641 5.64365 15.7212C6.97497 17.0783 8.8196 17.9329 10.8473 17.9329C14.0548 17.9329 16.7775 16.1341 17.8656 13.007H20.8615C19.6517 17.6976 15.7794 20.8824 10.8473 20.8824C7.97308 20.8824 5.37199 19.7029 3.52585 17.8145C1.70974 15.9276 0.5 13.3319 0.5 10.4704C0.5 7.5498 1.70974 4.95553 3.52585 3.06714Z" fill="black"/>
<path d="M25.6029 3.09902C27.4535 1.19849 30.0561 -0.000732422 32.8898 -0.000732422C35.7521 -0.000732422 38.3262 1.19849 40.2068 3.09902C42.0289 5.00107 43.2147 7.60293 43.2147 10.4993C43.2147 13.3956 42.0289 15.9975 40.2068 17.8995C38.3262 19.8289 35.7536 20.9993 32.8898 20.9993C30.0561 20.9993 27.4535 19.8289 25.6029 17.8995C23.7808 15.9975 22.595 13.3956 22.595 10.4993C22.595 7.60293 23.7808 5.00107 25.6029 3.09902ZM38.125 5.206C36.7667 3.8307 34.8861 2.98214 32.8913 2.98214C30.8966 2.98214 29.0445 3.8307 27.7147 5.206C26.3834 6.55095 25.5458 8.42264 25.5458 10.4993C25.5458 12.5759 26.3849 14.4476 27.7147 15.7925C29.0445 17.1678 30.8951 18.0149 32.8913 18.0149C34.8876 18.0149 36.7667 17.1663 38.125 15.7925C39.4263 14.4476 40.2654 12.6047 40.2654 10.4993C40.2639 8.3938 39.4263 6.55095 38.125 5.206Z" fill="black"/>
<path d="M69.7855 17.7826H80.6867V20.7367H66.8362V0.292236H80.6582V3.24626H69.787V9.00859H80.6882V11.9915H69.787V17.7826H69.7855Z" fill="black"/>
<path d="M88.9312 0.261841V3.24623H94.3811V20.8247H97.3018V3.24623H102.716V0.261841H88.9312Z" fill="black"/>
<path d="M107.25 3.09902C109.101 1.19849 111.703 -0.000732422 114.537 -0.000732422C117.399 -0.000732422 119.973 1.19849 121.854 3.09902C123.676 5.00107 124.862 7.60293 124.862 10.4993C124.862 13.3956 123.676 15.9975 121.854 17.8995C119.973 19.8289 117.401 20.9993 114.537 20.9993C111.703 20.9993 109.101 19.8289 107.25 17.8995C105.428 15.9975 104.242 13.3956 104.242 10.4993C104.242 7.60293 105.428 5.00107 107.25 3.09902ZM119.772 5.206C118.414 3.8307 116.533 2.98214 114.538 2.98214C112.544 2.98214 110.692 3.8307 109.362 5.206C108.03 6.55095 107.193 8.42264 107.193 10.4993C107.193 12.5759 108.032 14.4476 109.362 15.7925C110.692 17.1678 112.542 18.0149 114.538 18.0149C116.533 18.0149 118.414 17.1663 119.772 15.7925C121.073 14.4476 121.912 12.6047 121.912 10.4993C121.912 8.3938 121.073 6.55095 119.772 5.206Z" fill="black"/>
<path d="M47.6109 17.7826V3.24626H50.6623V0.292236H44.6886V20.7367H50.6623V17.7826H47.6109Z" fill="#F15A29"/>
<path d="M55.3601 0.292236H52.606V3.24626H55.3601C60.0445 3.24626 62.416 6.90312 62.416 10.5296C62.416 14.1561 60.0445 17.7841 55.3601 17.7841H52.606V20.7382H55.3601C61.9822 20.7382 65.3082 15.6483 65.3082 10.5296C65.3082 5.41093 61.9822 0.292236 55.3601 0.292236Z" fill="#F15A29"/>
<path d="M140.245 14.0757V-0.000732422H137.295V8.3847V14.0757C137.295 16.2479 135.548 18.0164 133.399 18.0164C131.25 18.0164 129.503 16.2494 129.503 14.0757V8.3847V-0.000732422H126.553V14.0772C126.553 17.901 129.618 21.0008 133.399 21.0008C137.18 21.0008 140.245 17.8995 140.245 14.0757Z" fill="black"/>
<path d="M155.5 7.11114C155.5 3.62429 153.261 0.137451 148.81 0.137451H141.683V20.9993H144.689V14.056H148.551L152.554 21.0008H155.474L151.242 13.6567C154.074 12.6518 155.5 9.89211 155.5 7.11114ZM144.687 3.17649H148.81C151.315 3.17649 152.554 5.14381 152.554 7.13998C152.554 9.10731 151.315 11.0746 148.81 11.0746H144.687V3.17649Z" fill="black"/>
</svg>
