<svg width="20" height="21" viewBox="0 0 20 21" fill="none" xmlns="http://www.w3.org/2000/svg">
<path d="M14.667 5.05142H16.0003M6.00033 1.05142H14.0003C16.9458 1.05142 19.3337 3.43924 19.3337 6.38476V14.3848C19.3337 17.3303 16.9458 19.7181 14.0003 19.7181H6.00032C3.05481 19.7181 0.666992 17.3303 0.666992 14.3848V6.38475C0.666992 3.43924 3.05481 1.05142 6.00033 1.05142ZM10.0003 14.3848C7.79119 14.3848 6.00033 12.5939 6.00033 10.3848C6.00033 8.17562 7.79119 6.38476 10.0003 6.38476C12.2095 6.38476 14.0003 8.17562 14.0003 10.3848C14.0003 12.5939 12.2095 14.3848 10.0003 14.3848Z" stroke="#403845"/>
</svg>
