<svg width="200" height="44" viewBox="0 0 200 44" fill="none" xmlns="http://www.w3.org/2000/svg">
<path d="M3.89008 4.32887C6.26156 1.94016 9.6075 0.384766 13.3027 0.384766C19.5257 0.384766 24.4269 4.17665 25.9821 10.1679H22.092C20.6525 6.18676 17.3085 4.17665 13.3027 4.17665C10.6977 4.17665 8.32431 5.27733 6.61275 7.02007C4.90119 8.76477 3.8129 11.1144 3.8129 13.8466C3.8129 16.5008 4.90119 18.8524 6.61275 20.5971C8.32431 22.3418 10.6958 23.4405 13.3027 23.4405C17.4263 23.4405 20.9266 21.1279 22.3255 17.1077H26.177C24.6217 23.138 19.6434 27.2324 13.3027 27.2324C9.6075 27.2324 6.26349 25.716 3.89008 23.2883C1.55526 20.8625 0 17.5253 0 13.8466C0 10.0918 1.55526 6.75661 3.89008 4.32887Z" fill="black"/>
<path d="M32.2722 4.36985C34.6514 1.9265 37.9973 0.384766 41.6404 0.384766C45.3202 0.384766 48.6294 1.9265 51.0472 4.36985C53.3898 6.81516 54.9142 10.1601 54.9142 13.8837C54.9142 17.6073 53.3898 20.9523 51.0472 23.3976C48.6294 25.878 45.3221 27.3827 41.6404 27.3827C37.9973 27.3827 34.6514 25.878 32.2722 23.3976C29.9297 20.9523 28.4053 17.6073 28.4053 13.8837C28.4053 10.1601 29.9297 6.81516 32.2722 4.36985ZM48.3709 7.07862C46.6246 5.3105 44.2068 4.21958 41.6423 4.21958C39.0779 4.21958 36.6968 5.3105 34.9871 7.07862C33.2756 8.8077 32.1989 11.214 32.1989 13.8837C32.1989 16.5534 33.2775 18.9597 34.9871 20.6888C36.6968 22.4569 39.076 23.5459 41.6423 23.5459C44.2087 23.5459 46.6246 22.455 48.3709 20.6888C50.0438 18.9597 51.1225 16.5905 51.1225 13.8837C51.1206 11.1769 50.0438 8.8077 48.3709 7.07862Z" fill="black"/>
<path d="M89.0739 23.2472H103.089V27.045H85.2822V0.761353H103.052V4.55909H89.0758V11.9672H103.091V15.802H89.0758V23.2472H89.0739Z" fill="black"/>
<path d="M113.688 0.722443V4.55921H120.695V27.1583H124.45V4.55921H131.41V0.722443H113.688Z" fill="black"/>
<path d="M137.239 4.36985C139.618 1.9265 142.964 0.384766 146.607 0.384766C150.287 0.384766 153.596 1.9265 156.014 4.36985C158.357 6.81516 159.881 10.1601 159.881 13.8837C159.881 17.6073 158.357 20.9523 156.014 23.3976C153.596 25.878 150.289 27.3827 146.607 27.3827C142.964 27.3827 139.618 25.878 137.239 23.3976C134.896 20.9523 133.372 17.6073 133.372 13.8837C133.372 10.1601 134.896 6.81516 137.239 4.36985ZM153.338 7.07862C151.591 5.3105 149.174 4.21958 146.609 4.21958C144.045 4.21958 141.664 5.3105 139.954 7.07862C138.242 8.8077 137.166 11.214 137.166 13.8837C137.166 16.5534 138.244 18.9597 139.954 20.6888C141.664 22.4569 144.043 23.5459 146.609 23.5459C149.174 23.5459 151.591 22.455 153.338 20.6888C155.011 18.9597 156.089 16.5905 156.089 13.8837C156.089 11.1769 155.011 8.8077 153.338 7.07862Z" fill="black"/>
<path d="M60.5665 23.2472V4.55909H64.4894V0.761353H56.8096V27.045H64.4894V23.2472H60.5665Z" fill="#F15A29"/>
<path d="M70.5291 0.761475H66.9883V4.55921H70.5291C76.5514 4.55921 79.6002 9.26052 79.6002 13.9228C79.6002 18.5851 76.5514 23.2493 70.5291 23.2493H66.9883V27.047H70.5291C79.0425 27.047 83.3185 20.5035 83.3185 13.9228C83.3185 7.34214 79.0425 0.761475 70.5291 0.761475Z" fill="#F15A29"/>
<path d="M179.657 18.4816V0.384766H175.866V11.1652V18.4816C175.866 21.2743 173.62 23.5478 170.857 23.5478C168.093 23.5478 165.847 21.2762 165.847 18.4816V11.1652V0.384766H162.056V18.4835C162.056 23.3995 165.996 27.3846 170.857 27.3846C175.717 27.3846 179.657 23.3976 179.657 18.4816Z" fill="black"/>
<path d="M199.27 9.528C199.27 5.04527 196.391 0.562531 190.67 0.562531H181.506V27.3828H185.371V18.4564H190.336L195.482 27.3848H199.237L193.795 17.9431C197.437 16.6512 199.27 13.1033 199.27 9.528ZM185.369 4.46956H190.67C193.89 4.46956 195.482 6.99878 195.482 9.56508C195.482 12.0943 193.89 14.6235 190.67 14.6235H185.369V4.46956Z" fill="black"/>
<path d="M26.269 37.7399C26.4093 37.8103 26.4926 37.9188 26.517 38.0696C26.5414 38.2204 26.5028 38.3571 26.3991 38.4797C26.3279 38.5762 26.2385 38.6304 26.1267 38.6405C26.0149 38.6505 25.9031 38.6304 25.7892 38.5762C25.6591 38.5179 25.5229 38.4716 25.3786 38.4395C25.2343 38.4073 25.0838 38.3912 24.9273 38.3912C24.6346 38.3912 24.3723 38.4375 24.1426 38.5279C23.9129 38.6184 23.7157 38.749 23.5531 38.9179C23.3905 39.0867 23.2665 39.2857 23.1831 39.5169C23.0998 39.7481 23.0571 40.0013 23.0571 40.2807C23.0571 40.6084 23.1038 40.8918 23.1994 41.133C23.2949 41.3743 23.425 41.5753 23.5938 41.7361C23.7625 41.8969 23.9597 42.0155 24.1873 42.0939C24.415 42.1723 24.661 42.2105 24.9273 42.2105C25.0737 42.2105 25.22 42.1964 25.3664 42.1703C25.5128 42.1441 25.653 42.0959 25.7892 42.0255C25.9031 41.9713 26.0149 41.9532 26.1267 41.9693C26.2385 41.9853 26.332 42.0416 26.4072 42.1381C26.515 42.2728 26.5556 42.4095 26.5251 42.5522C26.4946 42.6949 26.4133 42.7974 26.2771 42.8618C26.1369 42.9321 25.9905 42.9884 25.8421 43.0346C25.6937 43.0809 25.5433 43.115 25.3908 43.1392C25.2383 43.1633 25.0838 43.1753 24.9273 43.1753C24.537 43.1753 24.167 43.113 23.8174 42.9904C23.4677 42.8678 23.1567 42.6849 22.8823 42.4436C22.6078 42.2024 22.3923 41.9009 22.2358 41.5391C22.0793 41.1773 22 40.7571 22 40.2807C22 39.8687 22.0711 39.4867 22.2155 39.139C22.3598 38.7912 22.5631 38.4897 22.8253 38.2344C23.0876 37.9791 23.3986 37.7822 23.7564 37.6394C24.1142 37.4967 24.5045 37.4264 24.9273 37.4264C25.1651 37.4264 25.3989 37.4525 25.6266 37.5068C25.8543 37.561 26.0698 37.6374 26.269 37.7399Z" fill="#333333"/>
<path d="M34.2478 40.2793C34.2478 40.6814 34.1807 41.0573 34.0445 41.405C33.9083 41.7528 33.7172 42.0603 33.4712 42.3257C33.2253 42.591 32.9325 42.798 32.593 42.9488C32.2536 43.0996 31.8836 43.1739 31.4831 43.1739C31.0826 43.1739 30.7127 43.0996 30.3772 42.9488C30.0418 42.798 29.7491 42.591 29.5031 42.3257C29.2571 42.0603 29.066 41.7528 28.9298 41.405C28.7936 41.0573 28.7266 40.6814 28.7266 40.2793C28.7266 39.8773 28.7936 39.5014 28.9298 39.1537C29.066 38.8059 29.2571 38.4984 29.5031 38.233C29.7491 37.9677 30.0418 37.7607 30.3772 37.6099C30.7127 37.4591 31.0826 37.3848 31.4831 37.3848C31.8836 37.3848 32.2536 37.4591 32.593 37.6099C32.9325 37.7607 33.2253 37.9677 33.4712 38.233C33.7172 38.4984 33.9083 38.8059 34.0445 39.1537C34.1787 39.5014 34.2478 39.8773 34.2478 40.2793ZM33.1887 40.2793C33.1887 39.9195 33.1155 39.5939 32.9691 39.3024C32.8228 39.011 32.6215 38.7778 32.3674 38.6069C32.1133 38.4361 31.8165 38.3496 31.4811 38.3496C31.1457 38.3496 30.8489 38.4361 30.5948 38.6069C30.3406 38.7778 30.1414 39.0089 29.9971 39.2984C29.8528 39.5879 29.7816 39.9155 29.7816 40.2793C29.7816 40.6392 29.8528 40.9648 29.9971 41.2563C30.1414 41.5477 30.3406 41.7809 30.5948 41.9518C30.8489 42.1226 31.1457 42.2091 31.4811 42.2091C31.8165 42.2091 32.1133 42.1226 32.3674 41.9518C32.6215 41.7809 32.8228 41.5477 32.9691 41.2563C33.1175 40.9628 33.1887 40.6372 33.1887 40.2793Z" fill="#333333"/>
<path d="M39.247 37.4651C39.6373 37.4651 39.985 37.5375 40.2879 37.6822C40.5907 37.827 40.8469 38.03 41.0563 38.2893C41.2657 38.5486 41.4222 38.8501 41.5279 39.1898C41.6336 39.5295 41.6865 39.8934 41.6865 40.2793C41.6865 40.7999 41.5909 41.2723 41.4019 41.6985C41.2128 42.1246 40.9363 42.4643 40.5765 42.7156C40.2167 42.9669 39.7735 43.0935 39.247 43.0935H37.3036C37.1634 43.0935 37.0455 43.0473 36.9499 42.9528C36.8544 42.8583 36.8076 42.7417 36.8076 42.603V37.9556C36.8076 37.8169 36.8544 37.7003 36.9499 37.6059C37.0455 37.5114 37.1634 37.4651 37.3036 37.4651H39.247ZM39.1657 42.1688C39.5072 42.1688 39.7857 42.0824 40.0033 41.9075C40.2208 41.7326 40.3793 41.5035 40.4789 41.216C40.5786 40.9286 40.6294 40.617 40.6294 40.2793C40.6294 40.0281 40.6009 39.7868 40.544 39.5597C40.4871 39.3326 40.3997 39.1315 40.2797 38.9567C40.1598 38.7818 40.0094 38.6451 39.8244 38.5426C39.6394 38.4401 39.4198 38.3898 39.1657 38.3898H37.7427L37.824 38.3174V42.2573L37.7753 42.1688H39.1657Z" fill="#333333"/>
<path d="M44.7441 37.4651H47.4681C47.6084 37.4651 47.7263 37.5094 47.8218 37.5978C47.9174 37.6863 47.9641 37.8008 47.9641 37.9395C47.9641 38.0742 47.9174 38.1828 47.8218 38.2652C47.7263 38.3476 47.6084 38.3898 47.4681 38.3898H45.1913L45.2645 38.2531V39.821L45.1994 39.7567H47.1022C47.2424 39.7567 47.3604 39.8009 47.4559 39.8894C47.5514 39.9778 47.5982 40.0924 47.5982 40.2311C47.5982 40.3658 47.5514 40.4743 47.4559 40.5567C47.3604 40.6391 47.2424 40.6813 47.1022 40.6813H45.2238L45.2645 40.617V42.2412L45.1994 42.1688H47.4681C47.6084 42.1688 47.7263 42.2151 47.8218 42.3096C47.9174 42.404 47.9641 42.5126 47.9641 42.6352C47.9641 42.7699 47.9174 42.8784 47.8218 42.9649C47.7263 43.0513 47.6084 43.0935 47.4681 43.0935H44.7441C44.6038 43.0935 44.4859 43.0473 44.3903 42.9528C44.2948 42.8583 44.248 42.7417 44.248 42.603V37.9556C44.248 37.8169 44.2948 37.7003 44.3903 37.6059C44.4859 37.5114 44.6038 37.4651 44.7441 37.4651Z" fill="#333333"/>
<path d="M54.7206 40.7861C54.5804 40.7861 54.4625 40.7399 54.3669 40.6494C54.2714 40.559 54.2246 40.4424 54.2246 40.3037C54.2246 40.165 54.2714 40.0504 54.3669 39.962C54.4625 39.8735 54.5804 39.8293 54.7206 39.8293H56.1355C56.2757 39.8293 56.3936 39.8755 56.4892 39.97C56.5847 40.0645 56.6315 40.1811 56.6315 40.3198C56.6315 40.4544 56.5847 40.565 56.4892 40.6534C56.3936 40.7419 56.2757 40.7861 56.1355 40.7861H54.7206Z" fill="#333333"/>
<path d="M67.1616 37.7384C67.3018 37.8087 67.3852 37.9173 67.4096 38.068C67.434 38.2188 67.3954 38.3555 67.2917 38.4781C67.2205 38.5746 67.1311 38.6289 67.0193 38.6389C66.9075 38.649 66.7957 38.6289 66.6818 38.5746C66.5517 38.5163 66.4155 38.4701 66.2712 38.4379C66.1269 38.4057 65.9764 38.3897 65.8199 38.3897C65.5272 38.3897 65.2649 38.4359 65.0352 38.5264C64.8055 38.6168 64.6083 38.7475 64.4457 38.9163C64.2831 39.0852 64.1591 39.2842 64.0757 39.5153C63.9924 39.7465 63.9497 39.9998 63.9497 40.2792C63.9497 40.6068 63.9964 40.8903 64.092 41.1315C64.1875 41.3727 64.3176 41.5737 64.4863 41.7345C64.6551 41.8953 64.8523 42.0139 65.0799 42.0923C65.3076 42.1707 65.5536 42.2089 65.8199 42.2089C65.9663 42.2089 66.1126 42.1948 66.259 42.1687C66.4054 42.1426 66.5456 42.0943 66.6818 42.024C66.7957 41.9697 66.9075 41.9516 67.0193 41.9677C67.1311 41.9838 67.2246 42.0401 67.2998 42.1365C67.4076 42.2712 67.4482 42.4079 67.4177 42.5506C67.3872 42.6934 67.3059 42.7959 67.1697 42.8602C67.0294 42.9305 66.8831 42.9868 66.7347 43.0331C66.5863 43.0793 66.4358 43.1135 66.2834 43.1376C66.1309 43.1617 65.9764 43.1738 65.8199 43.1738C65.4296 43.1738 65.0596 43.1115 64.71 42.9888C64.3603 42.8662 64.0493 42.6833 63.7748 42.4421C63.5004 42.2009 63.2849 41.8994 63.1284 41.5375C62.9719 41.1757 62.8926 40.7556 62.8926 40.2792C62.8926 39.8671 62.9637 39.4852 63.1081 39.1374C63.2524 38.7897 63.4557 38.4882 63.7179 38.2329C63.9802 37.9776 64.2912 37.7806 64.649 37.6379C65.0067 37.4952 65.3971 37.4248 65.8199 37.4248C66.0577 37.4248 66.2915 37.4509 66.5192 37.5052C66.7469 37.5595 66.9624 37.6359 67.1616 37.7384Z" fill="#333333"/>
<path d="M75.1384 40.2793C75.1384 40.6814 75.0713 41.0573 74.9351 41.405C74.7989 41.7528 74.6078 42.0603 74.3619 42.3257C74.1159 42.591 73.8232 42.798 73.4837 42.9488C73.1442 43.0996 72.7742 43.1739 72.3737 43.1739C71.9733 43.1739 71.6033 43.0996 71.2679 42.9488C70.9324 42.798 70.6397 42.591 70.3937 42.3257C70.1478 42.0603 69.9567 41.7528 69.8205 41.405C69.6843 41.0573 69.6172 40.6814 69.6172 40.2793C69.6172 39.8773 69.6843 39.5014 69.8205 39.1537C69.9567 38.8059 70.1478 38.4984 70.3937 38.233C70.6397 37.9677 70.9324 37.7607 71.2679 37.6099C71.6033 37.4591 71.9733 37.3848 72.3737 37.3848C72.7742 37.3848 73.1442 37.4591 73.4837 37.6099C73.8232 37.7607 74.1159 37.9677 74.3619 38.233C74.6078 38.4984 74.7989 38.8059 74.9351 39.1537C75.0713 39.5014 75.1384 39.8773 75.1384 40.2793ZM74.0813 40.2793C74.0813 39.9195 74.0081 39.5939 73.8618 39.3024C73.7154 39.011 73.5142 38.7778 73.2601 38.6069C73.0059 38.4361 72.7091 38.3496 72.3737 38.3496C72.0383 38.3496 71.7415 38.4361 71.4874 38.6069C71.2333 38.7778 71.0341 39.0089 70.8898 39.2984C70.7454 39.5879 70.6743 39.9155 70.6743 40.2793C70.6743 40.6392 70.7454 40.9648 70.8898 41.2563C71.0341 41.5477 71.2333 41.7809 71.4874 41.9518C71.7415 42.1226 72.0383 42.2091 72.3737 42.2091C72.7091 42.2091 73.0059 42.1226 73.2601 41.9518C73.5142 41.7809 73.7154 41.5477 73.8618 41.2563C74.0081 40.9628 74.0813 40.6372 74.0813 40.2793Z" fill="#333333"/>
<path d="M82.018 37.4651C82.1481 37.4651 82.2538 37.5074 82.3351 37.5938C82.4164 37.6802 82.4571 37.7868 82.4571 37.9154V42.603C82.4571 42.7417 82.4103 42.8583 82.3148 42.9528C82.2192 43.0473 82.1013 43.0935 81.9611 43.0935C81.8899 43.0935 81.8188 43.0814 81.7456 43.0573C81.6724 43.0332 81.6175 42.999 81.5789 42.9568L78.3832 38.9446L78.5946 38.816V42.6432C78.5946 42.7719 78.552 42.8784 78.4686 42.9649C78.3853 43.0513 78.2755 43.0935 78.1393 43.0935C78.0092 43.0935 77.9035 43.0513 77.8222 42.9649C77.7409 42.8784 77.7002 42.7719 77.7002 42.6432V37.9556C77.7002 37.8169 77.747 37.7003 77.8425 37.6059C77.938 37.5114 78.0559 37.4651 78.1962 37.4651C78.2714 37.4651 78.3507 37.4792 78.432 37.5094C78.5133 37.5395 78.5723 37.5837 78.6109 37.642L81.709 41.5497L81.5707 41.6462V37.9154C81.5707 37.7868 81.6114 37.6802 81.6927 37.5938C81.774 37.5074 81.8838 37.4651 82.018 37.4651Z" fill="#333333"/>
<path d="M89.6205 37.4651C89.7506 37.4651 89.8563 37.5074 89.9376 37.5938C90.019 37.6802 90.0596 37.7868 90.0596 37.9154V42.603C90.0596 42.7417 90.0129 42.8583 89.9173 42.9528C89.8218 43.0473 89.7039 43.0935 89.5636 43.0935C89.4924 43.0935 89.4213 43.0814 89.3481 43.0573C89.2749 43.0332 89.2201 42.999 89.1814 42.9568L85.9858 38.9446L86.1972 38.816V42.6432C86.1972 42.7719 86.1545 42.8784 86.0712 42.9649C85.9878 43.0513 85.878 43.0935 85.7418 43.0935C85.6117 43.0935 85.506 43.0513 85.4247 42.9649C85.3434 42.8784 85.3027 42.7719 85.3027 42.6432V37.9556C85.3027 37.8169 85.3495 37.7003 85.445 37.6059C85.5406 37.5114 85.6585 37.4651 85.7988 37.4651C85.874 37.4651 85.9532 37.4792 86.0346 37.5094C86.1159 37.5395 86.1748 37.5837 86.2135 37.642L89.3115 41.5497L89.1733 41.6462V37.9154C89.1733 37.7868 89.214 37.6802 89.2953 37.5938C89.3766 37.5074 89.4863 37.4651 89.6205 37.4651Z" fill="#333333"/>
<path d="M93.4023 37.4651H96.1263C96.2666 37.4651 96.3845 37.5094 96.48 37.5978C96.5756 37.6863 96.6223 37.8008 96.6223 37.9395C96.6223 38.0742 96.5756 38.1828 96.48 38.2652C96.3845 38.3476 96.2666 38.3898 96.1263 38.3898H93.8495L93.9227 38.2531V39.821L93.8576 39.7567H95.7604C95.9007 39.7567 96.0186 39.8009 96.1141 39.8894C96.2097 39.9778 96.2564 40.0924 96.2564 40.2311C96.2564 40.3658 96.2097 40.4743 96.1141 40.5567C96.0186 40.6391 95.9007 40.6813 95.7604 40.6813H93.882L93.9227 40.617V42.2412L93.8576 42.1688H96.1263C96.2666 42.1688 96.3845 42.2151 96.48 42.3096C96.5756 42.404 96.6223 42.5126 96.6223 42.6352C96.6223 42.7699 96.5756 42.8784 96.48 42.9649C96.3845 43.0513 96.2666 43.0935 96.1263 43.0935H93.4023C93.262 43.0935 93.1441 43.0473 93.0486 42.9528C92.953 42.8583 92.9062 42.7417 92.9062 42.603V37.9556C92.9062 37.8169 92.953 37.7003 93.0486 37.6059C93.1441 37.5114 93.262 37.4651 93.4023 37.4651Z" fill="#333333"/>
<path d="M103.167 37.7384C103.308 37.8087 103.391 37.9173 103.415 38.068C103.44 38.2188 103.401 38.3555 103.298 38.4781C103.226 38.5746 103.137 38.6289 103.025 38.6389C102.913 38.649 102.802 38.6289 102.688 38.5746C102.558 38.5163 102.421 38.4701 102.277 38.4379C102.133 38.4057 101.982 38.3897 101.826 38.3897C101.533 38.3897 101.271 38.4359 101.041 38.5264C100.811 38.6168 100.614 38.7475 100.452 38.9163C100.289 39.0852 100.165 39.2842 100.082 39.5153C99.9982 39.7465 99.9555 39.9998 99.9555 40.2792C99.9555 40.6068 100.002 40.8903 100.098 41.1315C100.193 41.3727 100.323 41.5737 100.492 41.7345C100.661 41.8953 100.858 42.0139 101.086 42.0923C101.313 42.1707 101.559 42.2089 101.826 42.2089C101.972 42.2089 102.118 42.1948 102.265 42.1687C102.411 42.1426 102.551 42.0943 102.688 42.024C102.802 41.9697 102.913 41.9516 103.025 41.9677C103.137 41.9838 103.23 42.0401 103.306 42.1365C103.413 42.2712 103.454 42.4079 103.424 42.5506C103.393 42.6934 103.312 42.7959 103.176 42.8602C103.035 42.9305 102.889 42.9868 102.741 43.0331C102.592 43.0793 102.442 43.1135 102.289 43.1376C102.137 43.1617 101.982 43.1738 101.826 43.1738C101.435 43.1738 101.065 43.1115 100.716 42.9888C100.366 42.8662 100.055 42.6833 99.7807 42.4421C99.5063 42.2009 99.2908 41.8994 99.1342 41.5375C98.9777 41.1757 98.8984 40.7556 98.8984 40.2792C98.8984 39.8671 98.9696 39.4852 99.1139 39.1374C99.2583 38.7897 99.4615 38.4882 99.7238 38.2329C99.986 37.9776 100.297 37.7806 100.655 37.6379C101.013 37.4952 101.403 37.4248 101.826 37.4248C102.064 37.4248 102.297 37.4509 102.525 37.5052C102.753 37.5575 102.968 37.6359 103.167 37.7384Z" fill="#333333"/>
<path d="M106.038 38.3898C105.898 38.3898 105.78 38.3476 105.684 38.2612C105.589 38.1747 105.542 38.0622 105.542 37.9235C105.542 37.7848 105.589 37.6722 105.684 37.5898C105.78 37.5074 105.898 37.4651 106.038 37.4651H109.648C109.789 37.4651 109.907 37.5074 110.002 37.5938C110.098 37.6802 110.144 37.7928 110.144 37.9315C110.144 38.0702 110.098 38.1828 110.002 38.2652C109.907 38.3476 109.789 38.3898 109.648 38.3898H106.038ZM107.835 43.0935C107.683 43.0935 107.559 43.0473 107.461 42.9528C107.363 42.8583 107.315 42.7417 107.315 42.603V37.9395H108.372V42.603C108.372 42.7417 108.321 42.8583 108.221 42.9528C108.122 43.0453 107.994 43.0935 107.835 43.0935Z" fill="#333333"/>
<path d="M116.82 40.7861C116.68 40.7861 116.562 40.7399 116.467 40.6494C116.371 40.559 116.324 40.4424 116.324 40.3037C116.324 40.165 116.371 40.0504 116.467 39.962C116.562 39.8735 116.68 39.8293 116.82 39.8293H118.235C118.375 39.8293 118.493 39.8755 118.589 39.97C118.684 40.0645 118.731 40.1811 118.731 40.3198C118.731 40.4544 118.684 40.565 118.589 40.6534C118.493 40.7419 118.375 40.7861 118.235 40.7861H116.82Z" fill="#333333"/>
<path d="M129.261 37.7384C129.401 37.8087 129.485 37.9173 129.509 38.068C129.534 38.2188 129.495 38.3555 129.391 38.4781C129.32 38.5746 129.231 38.6289 129.119 38.6389C129.007 38.649 128.895 38.6289 128.781 38.5746C128.651 38.5163 128.515 38.4701 128.371 38.4379C128.226 38.4057 128.076 38.3897 127.919 38.3897C127.627 38.3897 127.365 38.4359 127.135 38.5264C126.905 38.6168 126.708 38.7475 126.545 38.9163C126.383 39.0852 126.259 39.2842 126.175 39.5153C126.092 39.7465 126.049 39.9998 126.049 40.2792C126.049 40.6068 126.096 40.8903 126.192 41.1315C126.287 41.3727 126.417 41.5737 126.586 41.7345C126.755 41.8953 126.952 42.0139 127.18 42.0923C127.407 42.1707 127.653 42.2089 127.919 42.2089C128.066 42.2089 128.212 42.1948 128.359 42.1687C128.505 42.1426 128.645 42.0943 128.781 42.024C128.895 41.9697 129.007 41.9516 129.119 41.9677C129.231 41.9838 129.324 42.0401 129.399 42.1365C129.507 42.2712 129.548 42.4079 129.517 42.5506C129.487 42.6934 129.406 42.7959 129.269 42.8602C129.129 42.9305 128.983 42.9868 128.834 43.0331C128.686 43.0793 128.535 43.1135 128.383 43.1376C128.231 43.1617 128.076 43.1738 127.919 43.1738C127.529 43.1738 127.159 43.1115 126.81 42.9888C126.46 42.8662 126.149 42.6833 125.874 42.4421C125.6 42.2009 125.385 41.8994 125.228 41.5375C125.071 41.1757 124.992 40.7556 124.992 40.2792C124.992 39.8671 125.063 39.4852 125.208 39.1374C125.352 38.7897 125.555 38.4882 125.818 38.2329C126.08 37.9776 126.391 37.7806 126.749 37.6379C127.106 37.4952 127.497 37.4248 127.919 37.4248C128.157 37.4248 128.391 37.4509 128.619 37.5052C128.846 37.5575 129.062 37.6359 129.261 37.7384Z" fill="#333333"/>
<path d="M132.522 37.4651C132.652 37.4651 132.768 37.5114 132.868 37.6059C132.968 37.7003 133.018 37.8169 133.018 37.9556V42.603C133.018 42.7417 132.968 42.8583 132.864 42.9528C132.76 43.0473 132.642 43.0935 132.506 43.0935C132.354 43.0935 132.232 43.0473 132.14 42.9528C132.049 42.8583 132.002 42.7417 132.002 42.603V37.9556C132.002 37.8169 132.051 37.7003 132.148 37.6059C132.246 37.5114 132.372 37.4651 132.522 37.4651ZM132.498 39.8049H136.125V40.7296H132.498V39.8049ZM136.125 37.4651C136.277 37.4651 136.399 37.5114 136.49 37.6059C136.582 37.7003 136.629 37.8169 136.629 37.9556V42.603C136.629 42.7417 136.582 42.8583 136.486 42.9528C136.391 43.0473 136.265 43.0935 136.108 43.0935C135.978 43.0935 135.862 43.0473 135.763 42.9528C135.663 42.8583 135.612 42.7417 135.612 42.603V37.9556C135.612 37.8169 135.663 37.7003 135.767 37.6059C135.87 37.5114 135.99 37.4651 136.125 37.4651Z" fill="#333333"/>
<path d="M141.565 38.7275L139.808 42.8121C139.77 42.9146 139.713 42.993 139.633 43.0493C139.554 43.1056 139.469 43.1337 139.377 43.1337C139.231 43.1337 139.123 43.0935 139.052 43.0131C138.981 42.9327 138.946 42.8342 138.946 42.7156C138.946 42.6673 138.954 42.6171 138.971 42.5628L140.995 37.7546C141.038 37.6481 141.105 37.5636 141.195 37.5053C141.284 37.447 141.38 37.4229 141.483 37.433C141.581 37.433 141.672 37.4611 141.756 37.5174C141.839 37.5737 141.9 37.6521 141.939 37.7546L143.939 42.4663C143.965 42.5367 143.98 42.601 143.98 42.6593C143.98 42.804 143.933 42.9186 143.837 43.005C143.742 43.0915 143.638 43.1337 143.524 43.1337C143.427 43.1337 143.339 43.1035 143.26 43.0452C143.181 42.987 143.12 42.9065 143.077 42.804L141.329 38.7757L141.565 38.7275ZM140.06 41.8311L140.508 40.9065H142.703L142.857 41.8311H140.06Z" fill="#333333"/>
<path d="M149.436 42.1528C149.576 42.1528 149.694 42.197 149.789 42.2854C149.885 42.3739 149.932 42.4885 149.932 42.6272C149.932 42.7618 149.885 42.8724 149.789 42.9608C149.694 43.0493 149.576 43.0935 149.436 43.0935H146.793C146.653 43.0935 146.535 43.0473 146.439 42.9528C146.344 42.8583 146.297 42.7417 146.297 42.603V37.9556C146.297 37.8169 146.346 37.7003 146.443 37.6059C146.541 37.5114 146.665 37.4651 146.817 37.4651C146.947 37.4651 147.063 37.5114 147.163 37.6059C147.262 37.7003 147.313 37.8169 147.313 37.9556V42.2895L147.134 42.1528H149.436Z" fill="#333333"/>
<path d="M155.632 42.1528C155.772 42.1528 155.89 42.197 155.986 42.2854C156.081 42.3739 156.128 42.4885 156.128 42.6272C156.128 42.7618 156.081 42.8724 155.986 42.9608C155.89 43.0493 155.772 43.0935 155.632 43.0935H152.989C152.849 43.0935 152.731 43.0473 152.635 42.9528C152.54 42.8583 152.493 42.7417 152.493 42.603V37.9556C152.493 37.8169 152.542 37.7003 152.64 37.6059C152.737 37.5114 152.861 37.4651 153.014 37.4651C153.144 37.4651 153.26 37.5114 153.359 37.6059C153.459 37.7003 153.51 37.8169 153.51 37.9556V42.2895L153.331 42.1528H155.632Z" fill="#333333"/>
<path d="M159.185 37.4651H161.91C162.05 37.4651 162.168 37.5094 162.263 37.5978C162.359 37.6863 162.406 37.8008 162.406 37.9395C162.406 38.0742 162.359 38.1828 162.263 38.2652C162.168 38.3476 162.05 38.3898 161.91 38.3898H159.633L159.706 38.2531V39.821L159.641 39.7567H161.544C161.684 39.7567 161.802 39.8009 161.897 39.8894C161.993 39.9778 162.04 40.0924 162.04 40.2311C162.04 40.3658 161.993 40.4743 161.897 40.5567C161.802 40.6391 161.684 40.6813 161.544 40.6813H159.665L159.706 40.617V42.2412L159.641 42.1688H161.91C162.05 42.1688 162.168 42.2151 162.263 42.3096C162.359 42.404 162.406 42.5126 162.406 42.6352C162.406 42.7699 162.359 42.8784 162.263 42.9649C162.168 43.0513 162.05 43.0935 161.91 43.0935H159.185C159.045 43.0935 158.927 43.0473 158.832 42.9528C158.736 42.8583 158.689 42.7417 158.689 42.603V37.9556C158.689 37.8169 158.736 37.7003 158.832 37.6059C158.927 37.5114 159.045 37.4651 159.185 37.4651Z" fill="#333333"/>
<path d="M169.285 37.4651C169.415 37.4651 169.52 37.5074 169.602 37.5938C169.683 37.6802 169.724 37.7868 169.724 37.9154V42.603C169.724 42.7417 169.677 42.8583 169.581 42.9528C169.486 43.0473 169.368 43.0935 169.228 43.0935C169.157 43.0935 169.085 43.0814 169.012 43.0573C168.939 43.0332 168.884 42.999 168.845 42.9568L165.65 38.9446L165.861 38.816V42.6432C165.861 42.7719 165.819 42.8784 165.735 42.9649C165.652 43.0513 165.542 43.0935 165.406 43.0935C165.276 43.0935 165.17 43.0513 165.089 42.9649C165.007 42.8784 164.967 42.7719 164.967 42.6432V37.9556C164.967 37.8169 165.014 37.7003 165.109 37.6059C165.205 37.5114 165.323 37.4651 165.463 37.4651C165.538 37.4651 165.617 37.4792 165.699 37.5094C165.78 37.5395 165.839 37.5837 165.878 37.642L168.976 41.5497L168.837 41.6462V37.9154C168.837 37.7868 168.878 37.6802 168.959 37.5938C169.041 37.5074 169.148 37.4651 169.285 37.4651Z" fill="#333333"/>
<path d="M175.253 43.1739C174.84 43.1739 174.456 43.0996 174.098 42.9488C173.741 42.798 173.426 42.591 173.155 42.3257C172.885 42.0603 172.671 41.7528 172.517 41.405C172.362 41.0573 172.285 40.6814 172.285 40.2793C172.285 39.8773 172.362 39.5014 172.517 39.1537C172.671 38.8059 172.885 38.4984 173.155 38.233C173.426 37.9677 173.741 37.7607 174.098 37.6099C174.456 37.4591 174.84 37.3848 175.253 37.3848C175.507 37.3848 175.755 37.4109 175.993 37.4652C176.231 37.5194 176.45 37.5998 176.652 37.7064C176.733 37.7486 176.794 37.8069 176.835 37.8793C176.875 37.9516 176.896 38.026 176.896 38.1004C176.896 38.229 176.853 38.3436 176.766 38.4461C176.678 38.5486 176.568 38.5989 176.432 38.5989C176.389 38.5989 176.345 38.5929 176.298 38.5828C176.251 38.5727 176.207 38.5567 176.164 38.5346C176.028 38.4763 175.885 38.43 175.733 38.3979C175.58 38.3657 175.422 38.3496 175.253 38.3496C174.901 38.3496 174.58 38.4361 174.29 38.6109C173.999 38.7858 173.769 39.019 173.598 39.3105C173.428 39.6019 173.342 39.9256 173.342 40.2793C173.342 40.6271 173.428 40.9487 173.598 41.2442C173.769 41.5397 173.999 41.7729 174.29 41.9478C174.58 42.1226 174.901 42.2091 175.253 42.2091C175.416 42.2091 175.595 42.193 175.79 42.1608C175.985 42.1287 176.146 42.0865 176.27 42.0322L176.196 42.2734V40.8985L176.335 41.0191H175.432C175.292 41.0191 175.174 40.9728 175.078 40.8824C174.983 40.7919 174.936 40.6753 174.936 40.5366C174.936 40.3979 174.983 40.2814 175.078 40.1909C175.174 40.1004 175.292 40.0542 175.432 40.0542H176.766C176.906 40.0542 177.024 40.1004 177.115 40.1949C177.207 40.2894 177.253 40.406 177.253 40.5447V42.2493C177.253 42.3558 177.227 42.4443 177.176 42.5146C177.125 42.585 177.066 42.6413 177.001 42.6835C176.751 42.8342 176.479 42.9528 176.184 43.0413C175.889 43.1297 175.578 43.1739 175.253 43.1739Z" fill="#333333"/>
<path d="M180.351 37.4651H183.075C183.215 37.4651 183.333 37.5094 183.428 37.5978C183.524 37.6863 183.571 37.8008 183.571 37.9395C183.571 38.0742 183.524 38.1828 183.428 38.2652C183.333 38.3476 183.215 38.3898 183.075 38.3898H180.798L180.871 38.2531V39.821L180.806 39.7567H182.709C182.849 39.7567 182.967 39.8009 183.062 39.8894C183.158 39.9778 183.205 40.0924 183.205 40.2311C183.205 40.3658 183.158 40.4743 183.062 40.5567C182.967 40.6391 182.849 40.6813 182.709 40.6813H180.83L180.871 40.617V42.2412L180.806 42.1688H183.075C183.215 42.1688 183.333 42.2151 183.428 42.3096C183.524 42.404 183.571 42.5126 183.571 42.6352C183.571 42.7699 183.524 42.8784 183.428 42.9649C183.333 43.0513 183.215 43.0935 183.075 43.0935H180.351C180.21 43.0935 180.092 43.0473 179.997 42.9528C179.901 42.8583 179.854 42.7417 179.854 42.603V37.9556C179.854 37.8169 179.901 37.7003 179.997 37.6059C180.092 37.5114 180.21 37.4651 180.351 37.4651Z" fill="#333333"/>
</svg>
