<svg width="30" height="18" viewBox="0 0 30 18" fill="none" xmlns="http://www.w3.org/2000/svg">
<path d="M8.1395 0.954149C8.378 1.2092 8.378 1.62315 8.1395 1.87809L2.0842 8.3592H29.3895C29.7266 8.3592 30 8.65182 30 9.01263C30 9.37343 29.7266 9.66606 29.3895 9.66606H2.0843L8.1397 16.1473C8.378 16.4023 8.3781 16.8162 8.1396 17.0713C7.9012 17.3265 7.5146 17.3265 7.2762 17.0712L0.178801 9.4746C0.0596008 9.34707 0 9.17979 0 9.01263C0 8.84546 0.0595989 8.67818 0.1789 8.55066L7.2763 0.954149C7.5146 0.698877 7.9012 0.698877 8.1395 0.954149Z" fill="#bfbfbf"/>
</svg>
