<svg width="40" height="40" viewBox="0 0 40 40" fill="none" xmlns="http://www.w3.org/2000/svg">
<path d="M27.2322 15.5374C27.9056 14.9098 27.9427 13.8552 27.3151 13.1818C26.6875 12.5084 25.6329 12.4713 24.9595 13.0989L20.0826 17.6443L15.5372 12.7674C14.9097 12.0941 13.855 12.057 13.1817 12.6846C12.5083 13.3121 12.4712 14.3668 13.0988 15.0401L17.6442 19.917L12.7673 24.4624C12.0939 25.09 12.0568 26.1446 12.6844 26.8179C13.312 27.4913 14.3666 27.5284 15.04 26.9008L19.9169 22.3554L24.4623 27.2323C25.0898 27.9057 26.1445 27.9428 26.8178 27.3152C27.4912 26.6876 27.5283 25.633 26.9007 24.9596L22.3553 20.0827L27.2322 15.5374Z" fill="white"/>
<path fill-rule="evenodd" clip-rule="evenodd" d="M1.6665 20C1.6665 9.87474 9.87462 1.66663 19.9998 1.66663C30.1251 1.66663 38.3332 9.87474 38.3332 20C38.3332 30.1252 30.1251 38.3333 19.9998 38.3333C9.87462 38.3333 1.6665 30.1252 1.6665 20ZM19.9998 36.4999C11.7156 36.4999 3.49976 28.2013 3.49976 19.917C3.49976 11.6327 11.6326 3.49994 19.9169 3.49994C28.2011 3.49994 36.4998 11.6327 36.4998 19.917C36.4998 28.2013 28.2841 36.4999 19.9998 36.4999Z" fill="white"/>
</svg>
