<svg width="25" height="21" viewBox="0 0 25 21" fill="none" xmlns="http://www.w3.org/2000/svg">
<path d="M18.3594 0.5H6.64062C2.97917 0.5 0 3.19158 0 6.50007V10.5001C0 13.5852 2.58984 16.1334 5.9082 16.464V19.8335C5.9082 20.1032 6.08659 20.3461 6.36068 20.4493C6.63411 20.5524 6.94922 20.4955 7.15885 20.3047L11.3385 16.4996H18.3594C22.0208 16.4996 25 13.808 25 10.4995V6.49947C25 3.19158 22.0208 0.5 18.3594 0.5ZM23.5352 10.5001C23.5352 13.0732 21.2135 15.1668 18.3594 15.1668H11.0352C10.8411 15.1668 10.6549 15.2368 10.5176 15.3618L7.37305 18.224V15.8335C7.37305 15.4655 7.04492 15.1668 6.64062 15.1668C3.78646 15.1668 1.46484 13.0732 1.46484 10.5001V6.50007C1.46484 3.927 3.78646 1.83335 6.64062 1.83335H18.3594C21.2135 1.83335 23.5352 3.927 23.5352 6.50007V10.5001Z" fill="#737373"/>
</svg>
