<svg width="15" height="15" viewBox="0 0 15 15" fill="none" xmlns="http://www.w3.org/2000/svg">
<path d="M2.91797 9.38539L8.37896 3.92456L11.0772 6.62268L5.61625 12.0833L2.91797 9.38539Z" fill="#222222"/>
<path d="M9.27734 3.02512L10.2861 2.0166L12.9842 4.71455L11.9755 5.72324L9.27734 3.02512Z" fill="#222222"/>
<path d="M0.63604 14.9999C0.72913 14.9999 0.822386 14.9795 0.910009 14.9378L4.35351 13.2931C4.41877 13.2621 4.4784 13.2199 4.52941 13.1689L4.71576 12.9825L2.01748 10.2844L1.83113 10.4709C1.78012 10.5218 1.73805 10.5814 1.7069 10.6467L0.0620968 14.0901C-0.054017 14.3329 -0.00432493 14.6229 0.186327 14.8136C0.308073 14.936 0.470731 14.9999 0.63604 14.9999Z" fill="#222222"/>
<path d="M14.4409 3.25612C15.185 2.51211 15.185 1.30218 14.4409 0.558008C13.6967 -0.186003 12.4867 -0.186003 11.7426 0.558008L11.1836 1.11701L13.8819 3.81513L14.4409 3.25612Z" fill="#222222"/>
</svg>
