<svg width="18" height="18" viewBox="0 0 18 18" fill="none" xmlns="http://www.w3.org/2000/svg">
<path fill-rule="evenodd" clip-rule="evenodd" d="M2.33464 8.16663C2.33464 4.94496 4.94631 2.33329 8.16797 2.33329C11.3896 2.33329 14.0013 4.94496 14.0013 8.16663C14.0013 9.73824 13.3798 11.1647 12.3691 12.2136C12.3406 12.2355 12.3132 12.2596 12.287 12.2857C12.2609 12.3118 12.2369 12.3393 12.2149 12.3678C11.166 13.3784 9.73958 14 8.16797 14C4.94631 14 2.33464 11.3883 2.33464 8.16663ZM12.8494 14.0265C11.5663 15.0529 9.93881 15.6666 8.16797 15.6666C4.02583 15.6666 0.667969 12.3088 0.667969 8.16663C0.667969 4.02449 4.02583 0.666626 8.16797 0.666626C12.3101 0.666626 15.668 4.02449 15.668 8.16663C15.668 9.93747 15.0542 11.565 14.0279 12.848L17.0906 15.9107C17.416 16.2361 17.416 16.7638 17.0906 17.0892C16.7651 17.4147 16.2375 17.4147 15.912 17.0892L12.8494 14.0265Z" fill="#190134"/>
</svg>
